<svg width="400" height="400" viewBox="0 0 400 400" fill="none" xmlns="http://www.w3.org/2000/svg">
<circle cx="200" cy="200" r="200" fill="black"/>
<rect opacity="0.2" x="117.648" y="117.648" width="23.5294" height="23.5294" rx="4.70588" fill="white"/>
<rect x="164.707" y="117.648" width="23.5294" height="23.5294" rx="4.70588" fill="white"/>
<rect opacity="0.2" x="211.766" y="117.648" width="23.5294" height="23.5294" rx="4.70588" fill="white"/>
<rect opacity="0.2" x="258.824" y="117.648" width="23.5294" height="23.5294" rx="4.70588" fill="white"/>
<rect opacity="0.2" x="117.648" y="164.707" width="23.5294" height="23.5294" rx="4.70588" fill="white"/>
<rect opacity="0.2" x="164.707" y="164.707" width="23.5294" height="23.5294" rx="4.70588" fill="white"/>
<rect opacity="0.2" x="211.766" y="164.707" width="23.5294" height="23.5294" rx="4.70588" fill="white"/>
<rect x="258.824" y="164.707" width="23.5294" height="23.5294" rx="4.70588" fill="white"/>
<rect opacity="0.2" x="117.648" y="211.766" width="23.5294" height="23.5294" rx="4.70588" fill="white"/>
<rect opacity="0.2" x="164.707" y="211.766" width="23.5294" height="23.5294" rx="4.70588" fill="white"/>
<path d="M211.766 216.472C211.766 213.873 213.873 211.766 216.472 211.766H230.589C233.188 211.766 235.295 213.873 235.295 216.472V230.589C235.295 233.188 233.188 235.295 230.589 235.295H216.472C213.873 235.295 211.766 233.188 211.766 230.589V216.472Z" fill="white"/>
<rect opacity="0.2" x="258.824" y="211.766" width="23.5294" height="23.5294" rx="4.70588" fill="white"/>
<rect x="117.648" y="258.824" width="23.5294" height="23.5294" rx="4.70588" fill="white"/>
<rect opacity="0.2" x="164.707" y="258.824" width="23.5294" height="23.5294" rx="4.70588" fill="white"/>
<rect opacity="0.2" x="211.766" y="258.824" width="23.5294" height="23.5294" rx="4.70588" fill="white"/>
<rect opacity="0.2" x="258.824" y="258.824" width="23.5294" height="23.5294" rx="4.70588" fill="white"/>
</svg>
